Simulation
nRows=40
nColumns=15
endheader
time  TH_x TH_y TH_z SC_y  SC_z  SC_x  AC_y  AC_z  AC_x  GH_y  GH_z  GH_yy  EL_x  PS_y
8.6175  0.000000  0.000000  0.000000  -40.7056289522329  -3.099330861885703  -18.511282273300527  42.774741348159864  16.38641087785223  8.609711839336727  32.26259144244379  8.49029744958631  -14.071722154677706  20.571337300223128  120.000000
8.67495  0.000000  0.000000  0.000000  -40.903519908861156  -2.6019783493754467  -18.527460735521604  42.360136733681976  16.201156476006467  8.678267051134146  35.72699672511605  8.923614238814261  -17.084703907149528  20.50063205324302  120.000000
8.7324  0.000000  0.000000  0.000000  -41.073878424536694  -2.143673049056639  -18.507114851620287  42.16573009639607  15.95763594285174  8.828904601913093  40.15231356078367  9.656993862901437  -20.948186150109798  20.610287139417537  120.000000
8.78985  0.000000  0.000000  0.000000  -41.263834551854465  -1.7241318440449354  -18.422605877849023  42.230376457963395  15.670123882236043  9.066540589971732  45.20445156567231  10.766955028366555  -25.388298098051894  20.879894918415186  120.000000
8.8473  0.000000  0.000000  0.000000  -41.52901439297233  -1.320139604595173  -18.244802894153985  42.5575443695298  15.362075340672641  9.38529982918062  50.403208136570065  12.303888429306046  -30.026564515339427  21.24214716107446  120.000000
8.90475  0.000000  0.000000  0.000000  -41.912186516720446  -0.8946065231069145  -17.94171800573983  43.13121086588645  15.058556468507161  9.773010316233364  55.369482596837976  14.28130274975345  -34.601051800276664  21.617531816018495  120.000000
8.9622  0.000000  0.000000  0.000000  -42.424586868994076  -0.4052074413454888  -17.475445065275206  43.92708653851822  14.781956652215603  10.217086965749825  59.92446214234454  16.674728650547348  -39.042478657268106  21.943570616449623  120.000000
9.01965  0.000000  0.000000  0.000000  -43.04209515816394  0.18613929875668153  -16.79766003333922  44.915295764805514  14.554232674088537  10.708558371088914  64.04184662593164  19.42854144113936  -43.41299777376894  22.18744495141952  120.000000
9.0771  0.000000  0.000000  0.000000  -43.713480244212725  0.9138543509245298  -15.847607250896708  46.061764852688896  14.403125492243186  11.240535452085465  67.7559359315907  22.469140918378013  -47.81052154185336  22.341797374206664  120.000000
9.13455  0.000000  0.000000  0.000000  -44.37872056875565  1.8106671583697622  -14.554262430709715  47.331109275773414  14.364099037215539  11.804716354183288  71.09592069789176  25.7205844736773  -52.30143256943167  22.411549029776953  120.000000
9.192  0.000000  0.000000  0.000000  -44.99252410686139  2.9030087795344266  -12.84314725815122  48.68271668464235  14.469395740556955  12.396142189654556  74.06026358923569  29.112549203324612  -56.89158869481943  22.399877510724814  120.000000
9.24945  0.000000  0.000000  0.000000  -45.549111540087836  4.206182008892621  -10.645197253022847  50.06184100707348  14.72958843465049  13.023431749133067  76.62442728048437  32.57906528426217  -61.52833639637118  22.301873474030316  120.000000
9.3069  0.000000  0.000000  0.000000  -46.087350131823044  5.718739626777324  -7.907478092027696  51.40121261670742  15.12195822941514  13.71173085687054  78.76172099336769  36.053315737171324  -66.11997565300165  22.105026564005815  120.000000
9.36435  0.000000  0.000000  0.000000  -46.678134972822576  7.416045015936393  -4.602481346488738  52.6367245518021  15.593481884218576  14.492952999262426  80.46291913019068  39.46610085597836  -70.55952851502141  21.79893299157636  120.000000
9.421800000000001  0.000000  0.000000  0.000000  -47.40589671017294  9.242908770015672  -0.7361231527405829  53.72241851050306  16.07138808744808  15.39024636385987  81.74188621615436  42.7454473814376  -74.74199565379966  21.38650313145156  120.000000
9.47925  0.000000  0.000000  0.000000  -48.35330558526136  11.104447169450477  3.6445297934916967  54.63090839865566  16.47197905356067  16.407463644961076  82.63040775395845  45.81509426157443  -78.57354365184399  20.89114958936923  120.000000
9.5367  0.000000  0.000000  0.000000  -49.58373141879728  12.869587365727758  8.443834241180971  55.349034779859565  16.710604653471982  17.523155555349597  83.17007145436911  48.59633822568433  -81.97462894674221  20.352388690963732  120.000000
9.59415  0.000000  0.000000  0.000000  -51.114949882053324  14.39459075233317  13.511423191168898  55.877038709771846  16.716289779439332  18.68830893785984  83.40566936009992  51.017032480682936  -84.88094668482766  19.81465240889818  120.000000
9.6516  0.000000  0.000000  0.000000  -52.89059584432994  15.56681765104944  18.646619349437962  56.238904286292076  16.45487562160364  19.827442612470204  83.38672068317577  53.030099711989806  -87.2476243853602  19.318255623096448  120.000000
9.70905  0.000000  0.000000  0.000000  -54.77948542278978  16.34645507394043  23.61373582966131  56.482129707287484  15.940431774669223  20.850328715821014  83.1701182149327  54.62354308869267  -89.05398829052292  18.89395215104449  120.000000
9.7665  0.000000  0.000000  0.000000  -56.60699541818321  16.76554349700022  28.168180741467904  56.65748528175177  15.22365593283852  21.671708472856025  82.82155734692844  55.81160552744391  -90.30932508644625  18.561880814185383  120.000000
9.82395  0.000000  0.000000  0.000000  -58.19102939838963  16.91571666688277  32.087445467636385  56.80437433896318  14.378876422440117  22.222939832354783  82.41134183127446  56.621643777244195  -91.0545604282638  18.332694814255454  120.000000
9.8814  0.000000  0.000000  0.000000  -59.37590170713126  16.913961846916482  35.18924778703147  56.944490143381465  13.4880405820856  22.458531795742473  82.00661881881733  57.08431395112764  -91.35584840022774  18.209026190851215  120.000000
9.93885  0.000000  0.000000  0.000000  -60.043391116223454  16.87030540275908  37.336387226540346  57.08150785546293  12.626821688682407  22.362544417282855  81.65867645582239  57.2239293671145  -91.28973989393477  18.181069036286047  120.000000
9.9963  0.000000  0.000000  0.000000  -60.12112191303233  16.863922005112606  38.433560478017355  57.213159352475024  11.852254857834094  21.947968286409658  81.38683326561059  57.0576077938567  -90.92154682024594  18.227566020628853  120.000000
10.05375  0.000000  0.000000  0.000000  -59.58322151213638  16.9305092344754  38.42438017272661  57.33944742945055  11.194726789391623  21.25557238346114  81.16479098966207  56.59315834959291  -90.28180163661663  18.319985151507634  120.000000
10.1112  0.000000  0.000000  0.000000  -58.45257096548764  17.05274849578097  37.295842648358295  57.46632366306499  10.657390386844632  20.350680181937374  80.91950357747612  55.82864617664176  -89.34744460924048  18.429387434639978  120.000000
10.16865  0.000000  0.000000  0.000000  -56.799881156783236  17.155940582232535  35.09189445292233  57.602415457367286  10.2204079835425  19.31918752986455  80.54491182696651  54.75099991636204  -88.03390631601236  18.529960111751635  120.000000
10.2261  0.000000  0.000000  0.000000  -54.74080031881743  17.11773828403973  31.929423595182698  57.75074101631797  9.849000565830035  18.25768511427876  79.91699781305383  53.33754099535696  -86.20466067329998  18.600139800492332  120.000000
10.28355  0.000000  0.000000  0.000000  -52.43504697976283  16.80554250255795  28.005404449903452  57.91093598119489  9.504531283948188  17.25483880862251  78.90010602216935  51.56740038916254  -83.69477011953246  18.625657113675754  120.000000
10.341000000000001  0.000000  0.000000  0.000000  -50.06367769211374  16.121303004904107  23.57887681564117  58.080264997561954  9.144515743001419  16.381436629867196  77.35144718547019  49.43523832606489  -80.34262276339693  18.6062810125506  120.000000
10.39845  0.000000  0.000000  0.000000  -47.79949982718932  15.031598927871775  18.93180341625712  58.25793656496118  8.715976443867344  15.683174466416814  75.12408325580411  46.969143848323405  -76.01351982758784  18.5694297483276  120.000000
10.4559  0.000000  0.000000  0.000000  -45.76804827386699  13.578908651001177  14.330617052534897  58.44203794909262  8.157867879244034  15.178513972063012  72.06798809950425  44.238450669036055  -70.6083964210505  18.5759027223198  120.000000
10.51335  0.000000  0.000000  0.000000  -44.032510899065905  11.85058744204003  9.999661197619337  58.61830686073374  7.4038296146406015  14.86191456789162  68.02371602126608  41.35449630605366  -64.05348213630451  18.70725774816175  120.000000
10.5708  0.000000  0.000000  0.000000  -42.59992048113502  9.955781851960339  6.115745579163957  58.75927722948719  6.398279891759218  14.699517994686907  62.82199373792002  38.47065955312124  -56.29010187138449  19.038379860273082  120.000000
10.62825  0.000000  0.000000  0.000000  -41.432302614650375  7.994351532089149  2.8127879867654744  58.83159463219046  5.108048890740809  14.634648309568608  56.3204837621852  35.78043148526557  -47.29770122925525  19.60221977441505  120.000000
10.6857  0.000000  0.000000  0.000000  -40.46301937459602  6.0458663089077  0.1842897069442535  58.81429280025394  3.526096870569946  14.589806986543394  48.49601985475508  33.50185199467914  -37.17282504787431  20.370526910048056  120.000000
10.74315  0.000000  0.000000  0.000000  -39.610220653791096  4.166095168759114  -1.7146140458940318  58.70404212386066  1.6712088268302008  14.474525697402083  39.55826356913275  31.826734130817037  -26.230865838303824  21.256468911482035  120.000000
10.8006  0.000000  0.000000  0.000000  -38.793702473679495  2.3914055569557995  -2.8665198581249003  58.506846209784854  -0.41898797597535176  14.200449670546323  29.992038228441796  30.84982244367223  -15.038563708757746  22.14262486879991  120.000000
10.85805  0.000000  0.000000  0.000000  -37.962452658869005  0.74414204135995  -3.2883470622941275  58.225069808933995  -2.698081720628007  13.703012855051607  20.4434229998546  30.524518060789376  -4.284092453852112  22.920214797893486  120.000000
